<svg width="94" height="94" viewBox="0 0 94 94" fill="none" xmlns="http://www.w3.org/2000/svg">
    <path d="M47.6145 16.2045C44.625 16.0261 39.8365 16.6464 37.2712 17.0571C36.7731 17.1369 36.2907 16.8407 36.1423 16.3585L35.8105 15.2802C35.6347 14.7089 35.9945 14.1084 36.5766 13.9722C39.0015 13.405 42.3858 12.441 47.6145 12.7486C52.3565 13.0276 56.7185 14.3619 59.4932 15.3141C59.9525 15.4717 60.2278 15.9395 60.148 16.4186L59.9403 17.6647C59.8394 18.2696 59.2238 18.641 58.64 18.4529C55.9715 17.5929 52.0937 16.4719 47.6145 16.2045Z" fill="white"/>
    <path d="M79.4681 28.887L79.9374 29.6337C80.1527 29.9762 80.0446 30.4288 79.6976 30.637C79.397 30.8174 79.0102 30.7557 78.7806 30.4907L77.9696 29.555C76.1155 27.4157 74.0971 25.4245 71.9328 23.5996C71.5723 23.2957 71.5431 22.7507 71.869 22.4101L72.5062 21.7439C72.7573 21.4814 73.1716 21.4663 73.4411 21.7099C75.7697 23.8146 77.7977 26.2296 79.4681 28.887Z" fill="white"/>
    <path d="M14.3377 31.0808L14.0878 31.6069C13.8139 32.1836 13.6851 32.8186 13.7129 33.4565L13.7164 33.5377C13.7291 33.8292 14.0708 33.9792 14.2939 33.7913C14.898 33.2825 15.4121 32.6756 15.8145 31.996L15.9082 31.8377C17.7398 28.7444 19.876 25.8419 22.285 23.1735L23.2371 22.1188C23.4532 21.8794 23.397 21.5023 23.1204 21.3364L21.6264 20.44C21.2549 20.2171 20.7743 20.3203 20.5271 20.6759L19.5838 22.033C17.5906 24.9004 15.836 27.9265 14.3377 31.0808Z" fill="white"/>
    <path opacity="0.6" d="M47.0671 37.8547C46.1656 37.8002 44.7562 37.9741 43.9024 38.1063C43.6475 38.1458 43.4004 37.9942 43.3254 37.7474C43.2372 37.4573 43.4194 37.1503 43.714 37.0787L43.7279 37.0753C44.4914 36.8898 45.5326 36.6369 47.0671 36.7283C48.5043 36.8139 49.8331 37.2042 50.7293 37.5086C50.9721 37.5911 51.1168 37.8384 51.0751 38.0915C51.0221 38.4137 50.6941 38.6105 50.3827 38.5122C49.5378 38.2454 48.3831 37.9342 47.0671 37.8547Z" fill="white"/>
    <path opacity="0.6" d="M57.3253 41.8984L57.4693 42.1243C57.5397 42.2347 57.5046 42.3813 57.392 42.4479C57.2963 42.5045 57.1739 42.4851 57.1004 42.4015L56.8377 42.1028C56.2408 41.4238 55.5918 40.7925 54.8965 40.2146C54.7795 40.1174 54.7701 39.9412 54.876 39.832L55.0805 39.6213C55.1606 39.5387 55.2915 39.534 55.3774 39.6105C56.1287 40.28 56.7842 41.0498 57.3253 41.8984Z" fill="white"/>
    <path opacity="0.6" d="M36.4668 42.6228L36.3443 42.873C36.2818 43.0006 36.2525 43.1418 36.2588 43.2837L36.2592 43.2936C36.2653 43.4289 36.423 43.4994 36.5279 43.4137C36.6718 43.2961 36.7948 43.155 36.8916 42.9963L36.9713 42.8657C37.5635 41.8951 38.252 40.9868 39.0265 40.1543L39.2215 39.9446C39.3512 39.8052 39.3181 39.5815 39.1535 39.4857L38.9719 39.3799C38.7646 39.2592 38.4995 39.316 38.3598 39.511L38.1525 39.8004C37.5132 40.6928 36.9494 41.6368 36.4668 42.6228Z" fill="white"/>
    <path opacity="0.7" d="M27.1809 32.0928L25.1575 32.9599C24.8423 33.095 24.4797 33.0591 24.1971 32.8648L22.2149 31.5021C21.6232 31.0953 21.6404 30.216 22.2475 29.8325L24.6012 28.346C25.0253 28.0781 25.5823 28.1659 25.9034 28.5513L27.5552 30.5334C27.9836 31.0475 27.796 31.8291 27.1809 32.0928Z" fill="white"/>
    <path opacity="0.5" d="M36.2631 38.5421L35.1042 39.0524C34.9435 39.1231 34.7576 39.1044 34.6142 39.0032L33.4722 38.1966C33.1833 37.9926 33.1918 37.5613 33.4886 37.3687L34.8386 36.4928C35.0531 36.3536 35.338 36.3987 35.4991 36.5972L36.45 37.7695C36.6577 38.0256 36.565 38.4092 36.2631 38.5421Z" fill="white"/>
    <path opacity="0.7" d="M40.9096 22.7944L41.2966 24.0149C41.442 24.4732 41.8927 24.763 42.3711 24.7152C43.3832 24.6141 44.8447 24.498 46.0014 24.498C47.1824 24.498 49.0444 24.619 50.3656 24.7215C50.9223 24.7647 51.4106 24.349 51.4514 23.7921L51.5383 22.6039C51.5772 22.0729 51.194 21.6049 50.6644 21.5506C49.4176 21.4227 47.5547 21.2725 46.0014 21.2725C44.5669 21.2725 42.9196 21.4006 41.7342 21.5209C41.115 21.5838 40.7215 22.2011 40.9096 22.7944Z" fill="white"/>
    <path opacity="0.5" d="M43.6564 33.4923L43.88 34.1713C43.9542 34.397 44.1767 34.5391 44.4131 34.516C44.9623 34.4624 45.778 34.3987 46.4203 34.3987C47.0735 34.3987 48.1113 34.4645 48.8292 34.5187C49.1064 34.5396 49.3494 34.3328 49.3704 34.0556L49.4208 33.3933C49.441 33.1264 49.2477 32.891 48.9814 32.8644C48.3063 32.797 47.2765 32.7158 46.4203 32.7158C45.6272 32.7158 44.7141 32.7855 44.0695 32.8493C43.7566 32.8803 43.5581 33.1936 43.6564 33.4923Z" fill="white"/>
    <path opacity="0.7" d="M67.019 32.0687L65.4185 31.6019C64.7319 31.4016 64.4714 30.5663 64.9224 30.0113L65.5392 29.2522C65.7987 28.9328 66.2273 28.805 66.6193 28.9301L68.188 29.4307C68.8576 29.6444 69.1036 30.464 68.6623 31.0111L68.0774 31.7364C67.824 32.0507 67.4065 32.1817 67.019 32.0687Z" fill="white"/>
    <path opacity="0.5" d="M57.9263 38.4665L56.9704 38.201C56.6182 38.1032 56.4865 37.6728 56.7238 37.3947L57.0964 36.958C57.2255 36.8068 57.4319 36.7464 57.6222 36.8042L58.559 37.0889C58.903 37.1934 59.0276 37.616 58.7952 37.8904L58.4416 38.3078C58.3155 38.4567 58.1143 38.5187 57.9263 38.4665Z" fill="white"/>
</svg>