<svg class="logo-svg" width="1047" height="264" viewBox="0 0 1047 264" xmlns="http://www.w3.org/2000/svg" role="img">
    <title>Brand Logo</title>
    <g clip-path="url(#clip0_1428_1659)">
    <!-- Overall background shape - will get the DYNAMIC logo color -->
    <path class="logo-dynamic-bg" d="M1047 0H0V264H1047V0Z"/>

    <!-- Rectangle behind "HUE" - will match panel background -->
    <path class="logo-panel-bg-rect" d="M1013 34H517V230H1013V34Z"/>

    <!-- "H" letter part 1 - Fixed White Text -->
    <path class="logo-fixed-white-text" d="M829.995 73.001C837.294 73.001 843.7 75.613 848.96 80.7061L853.398 85.002H852.726C855.851 89.2212 858.277 94.3789 860.097 100.325L860.335 101.119L860.337 101.127L860.34 101.135L860.568 101.93C862.928 110.34 864.046 120.254 864.024 131.58V131.59L864.011 133.746L864.01 133.755V133.764C863.873 144.25 862.744 153.517 860.54 161.493L860.538 161.501L860.535 161.51L860.311 162.303L860.308 162.313C857.812 170.957 854.131 178.028 849.002 183.114L849.001 183.113L849 183.115L848.997 183.118C843.758 188.3 837.336 190.962 829.995 190.962C822.889 190.962 816.641 188.437 811.484 183.544L810.988 183.062L810.97 183.045C806.019 178.094 802.413 171.317 799.922 163.074L799.918 163.059L799.585 161.934V161.912C797.14 153.282 795.977 143.137 796 131.565V131.548L796.02 129.399V129.385C796.179 118.584 797.381 109.136 799.721 101.126L799.732 101.09L799.743 101.055L799.958 100.336L799.962 100.325L800.199 99.5654C802.681 91.7595 806.219 85.3513 811.036 80.7002C816.295 75.6105 822.7 73.001 829.995 73.001ZM829.995 78.001C824.008 78.001 818.846 80.0988 814.511 84.2949L814.509 84.2979C810.332 88.3307 807.077 94.1594 804.743 101.787L804.52 102.527L804.521 102.528C802.344 109.983 801.175 118.953 801.019 129.443L801.02 129.444L801 131.592C800.979 142.993 802.143 152.754 804.488 160.875L804.502 160.927L804.708 161.628L804.93 162.347C807.173 169.487 810.237 175.076 814.118 179.114L814.509 179.513L814.918 179.91C819.168 183.945 824.194 185.962 829.995 185.962C836.006 185.962 841.168 183.829 845.481 179.563L845.885 179.155C850.023 174.876 853.228 168.803 855.5 160.938L855.726 160.145C857.783 152.691 858.878 143.876 859.011 133.698L859.024 131.56C859.045 120.554 857.955 111.132 855.757 103.294L855.534 102.514C853.189 94.5385 849.842 88.4698 845.493 84.3086L845.291 84.1162C840.995 80.0399 835.897 78.001 829.995 78.001ZM829.995 98.415C832.231 98.415 834.208 99.4653 835.924 101.583L836.264 102.021L836.279 102.041L836.292 102.061L836.567 102.445L836.584 102.469L836.601 102.493C838.205 104.858 839.48 108.303 840.421 112.84L840.426 112.854L840.454 112.989C841.339 117.276 841.834 122.581 841.941 128.901L841.956 130.179V130.189L841.962 131.564V131.575L841.953 133.691C841.843 144.1 840.752 151.906 838.679 157.112L838.677 157.118C836.455 162.662 833.554 165.393 829.997 165.396H829.995C827.639 165.395 825.552 164.189 823.739 161.754L823.733 161.746L823.726 161.737C822.027 159.416 820.686 155.982 819.7 151.449L819.698 151.441L819.697 151.433L819.508 150.539L819.504 150.521L819.501 150.505C818.581 145.81 818.101 139.971 818.064 132.987L818.063 131.575L818.079 129.502C818.226 119.368 819.316 111.763 821.344 106.685L821.354 106.657L821.381 106.59C823.582 101.115 826.46 98.4151 829.995 98.415ZM829.995 103.415C829.628 103.415 828.004 103.549 826.044 108.394V108.396L826.017 108.465C824.198 112.966 823.085 120.505 823.063 131.585V131.591C823.04 139.013 823.51 144.965 824.406 149.535L824.585 150.387L824.76 151.16C825.647 154.937 826.721 157.361 827.759 158.781C828.351 159.573 828.83 159.965 829.169 160.161C829.484 160.343 829.742 160.394 829.994 160.395C830.373 160.394 832.035 160.246 834.034 155.264L834.205 154.819C835.949 150.138 836.983 142.545 836.962 131.586L836.956 130.222L836.941 128.98C836.837 122.854 836.358 117.882 835.557 113.999L835.556 113.992C834.675 109.69 833.563 106.929 832.472 105.314L832.251 105.005L832.04 104.732C831.559 104.137 831.162 103.822 830.867 103.653C830.554 103.474 830.282 103.415 829.995 103.415Z"/>
    <!-- "U" letter part - Fixed White Text -->
    <path class="logo-fixed-white-text" d="M745.995 73.001C753.294 73.001 759.7 75.613 764.96 80.7061L769.398 85.002H768.726C771.851 89.2212 774.277 94.3789 776.097 100.325L776.335 101.119L776.337 101.127L776.34 101.135L776.568 101.93C778.928 110.34 780.046 120.254 780.024 131.58V131.59L780.011 133.746L780.01 133.755V133.764C779.873 144.25 778.744 153.517 776.54 161.493L776.538 161.501L776.535 161.51L776.311 162.303L776.308 162.313C773.812 170.957 770.131 178.028 765.002 183.114L765.001 183.113L765 183.115L764.997 183.118C759.758 188.3 753.336 190.962 745.995 190.962C738.889 190.962 732.641 188.437 727.484 183.544L726.988 183.062L726.97 183.045C722.019 178.094 718.413 171.317 715.922 163.074L715.918 163.059L715.585 161.934V161.912C713.14 153.282 711.977 143.137 712 131.565V131.548L712.02 129.399V129.385C712.179 118.584 713.381 109.136 715.721 101.126L715.732 101.09L715.743 101.055L715.958 100.336L715.962 100.325L716.199 99.5654C718.681 91.7595 722.219 85.3513 727.036 80.7002C732.295 75.6105 738.7 73.001 745.995 73.001ZM745.995 78.001C740.008 78.001 734.846 80.0988 730.511 84.2949L730.509 84.2979C726.332 88.3307 723.077 94.1594 720.743 101.787L720.52 102.527L720.521 102.528C718.344 109.983 717.175 118.953 717.019 129.443L717.02 129.444L717 131.592C716.979 142.993 718.143 152.754 720.488 160.875L720.502 160.927L720.708 161.628L720.93 162.347C723.173 169.487 726.237 175.076 730.118 179.114L730.509 179.513L730.918 179.91C735.168 183.945 740.194 185.962 745.995 185.962C752.006 185.962 757.168 183.829 761.481 179.563L761.885 179.155C766.023 174.876 769.228 168.803 771.5 160.938L771.726 160.145C773.783 152.691 774.878 143.876 775.011 133.698L775.024 131.56C775.045 120.554 773.955 111.132 771.757 103.294L771.534 102.514C769.189 94.5385 765.842 88.4698 761.493 84.3086L761.291 84.1162C756.995 80.0399 751.897 78.001 745.995 78.001ZM745.995 98.415C748.231 98.415 750.208 99.4653 751.924 101.583L752.264 102.021L752.279 102.041L752.292 102.061L752.567 102.445L752.584 102.469L752.601 102.493C754.205 104.858 755.48 108.303 756.421 112.84L756.426 112.854L756.454 112.989C757.339 117.276 757.834 122.581 757.941 128.901L757.956 130.179V130.189L757.962 131.564V131.575L757.953 133.691C757.843 144.1 756.752 151.906 754.679 157.112L754.677 157.118C752.455 162.662 749.554 165.393 745.997 165.396H745.995C743.639 165.395 741.552 164.189 739.739 161.754L739.733 161.746L739.726 161.737C738.027 159.416 736.686 155.982 735.7 151.449L735.698 151.441L735.697 151.433L735.508 150.539L735.504 150.521L735.501 150.505C734.581 145.81 734.101 139.971 734.064 132.987L734.063 131.575L734.079 129.502C734.226 119.368 735.316 111.763 737.344 106.685L737.354 106.657L737.381 106.59C739.582 101.115 742.46 98.4151 745.995 98.415ZM745.995 103.415C745.628 103.415 744.004 103.549 742.044 108.394V108.396L742.017 108.465C740.198 112.966 739.085 120.505 739.063 131.585V131.591C739.04 139.013 739.51 144.965 740.406 149.535L740.585 150.387L740.76 151.16C741.647 154.937 742.721 157.361 743.759 158.781C744.351 159.573 744.83 159.965 745.169 160.161C745.484 160.343 745.742 160.394 745.994 160.395C746.373 160.394 748.035 160.246 750.034 155.264L750.205 154.819C751.949 150.138 752.983 142.545 752.962 131.586L752.956 130.222L752.941 128.98C752.837 122.854 752.358 117.882 751.557 113.999L751.556 113.992C750.675 109.69 749.563 106.929 748.472 105.314L748.251 105.005L748.04 104.732C747.559 104.137 747.162 103.822 746.867 103.653C746.554 103.474 746.282 103.415 745.995 103.415Z"/>
    <!-- "E" letter part 1 - Fixed White Text -->
    <path class="logo-fixed-white-text" d="M661.995 73.001C669.294 73.001 675.7 75.613 680.96 80.7061L685.398 85.002H684.726C687.851 89.2212 690.277 94.3789 692.097 100.325L692.335 101.119L692.337 101.127L692.34 101.135L692.568 101.93C694.928 110.34 696.046 120.254 696.024 131.58V131.59L696.011 133.746L696.01 133.755V133.764C695.873 144.25 694.744 153.517 692.54 161.493L692.538 161.501L692.535 161.51L692.311 162.303L692.308 162.313C689.812 170.957 686.131 178.028 681.002 183.114L681.001 183.113L681 183.115L680.997 183.118C675.758 188.3 669.336 190.962 661.995 190.962C654.889 190.962 648.641 188.437 643.484 183.544L642.988 183.062L642.97 183.045C638.019 178.094 634.413 171.317 631.922 163.074L631.918 163.059L631.585 161.934V161.912C629.14 153.282 627.977 143.137 628 131.565V131.548L628.02 129.399V129.385C628.179 118.584 629.381 109.136 631.721 101.126L631.732 101.09L631.743 101.055L631.958 100.336L631.962 100.325L632.199 99.5654C634.681 91.7595 638.219 85.3513 643.036 80.7002C648.295 75.6105 654.7 73.001 661.995 73.001ZM661.995 78.001C656.008 78.001 650.846 80.0988 646.511 84.2949L646.509 84.2979C642.332 88.3307 639.077 94.1594 636.743 101.787L636.52 102.527L636.521 102.528C634.344 109.983 633.175 118.953 633.019 129.443L633.02 129.444L633 131.592C632.979 142.993 634.143 152.754 636.488 160.875L636.502 160.927L636.708 161.628L636.93 162.347C639.173 169.487 642.237 175.076 646.118 179.114L646.509 179.513L646.918 179.91C651.168 183.945 656.194 185.962 661.995 185.962C668.006 185.962 673.168 183.829 677.481 179.563L677.885 179.155C682.023 174.876 685.228 168.803 687.5 160.938L687.726 160.145C689.783 152.691 690.878 143.876 691.011 133.698L691.024 131.56C691.045 120.554 689.955 111.132 687.757 103.294L687.534 102.514C685.189 94.5385 681.842 88.4698 677.493 84.3086L677.291 84.1162C672.995 80.0399 667.897 78.001 661.995 78.001ZM661.995 98.415C664.231 98.415 666.208 99.4653 667.924 101.583L668.264 102.021L668.279 102.041L668.292 102.061L668.567 102.445L668.584 102.469L668.601 102.493C670.205 104.858 671.48 108.303 672.421 112.84L672.426 112.854L672.454 112.989C673.339 117.276 673.834 122.581 673.941 128.901L673.956 130.179V130.189L673.962 131.564V131.575L673.953 133.691C673.843 144.1 672.752 151.906 670.679 157.112L670.677 157.118C668.455 162.662 665.554 165.393 661.997 165.396H661.995C659.639 165.395 657.552 164.189 655.739 161.754L655.733 161.746L655.726 161.737C654.027 159.416 652.686 155.982 651.7 151.449L651.698 151.441L651.697 151.433L651.508 150.539L651.504 150.521L651.501 150.505C650.581 145.81 650.101 139.971 650.064 132.987L650.063 131.575L650.079 129.502C650.226 119.368 651.316 111.763 653.344 106.685L653.354 106.657L653.381 106.59C655.582 101.115 658.46 98.4151 661.995 98.415ZM661.995 103.415C661.628 103.415 660.004 103.549 658.044 108.394V108.396L658.017 108.465C656.198 112.966 655.085 120.505 655.063 131.585V131.591C655.04 139.013 655.51 144.965 656.406 149.535L656.585 150.387L656.76 151.16C657.647 154.937 658.721 157.361 659.759 158.781C660.351 159.573 660.83 159.965 661.169 160.161C661.484 160.343 661.742 160.394 661.994 160.395C662.373 160.394 664.035 160.246 666.034 155.264L666.205 154.819C667.949 150.138 668.983 142.545 668.962 131.586L668.956 130.222L668.941 128.98C668.837 122.854 668.358 117.882 667.557 113.999L667.556 113.992C666.675 109.69 665.563 106.929 664.472 105.314L664.251 105.005L664.04 104.732C663.559 104.137 663.162 103.822 662.867 103.653C662.554 103.474 662.282 103.415 661.995 103.415Z"/>
    <!-- "E" letter part 2 (the "line" of the E) - Fixed White Text -->
    <path class="logo-fixed-white-text" d="M577.84 73.0059C578.078 73.0081 578.316 73.0122 578.553 73.0205L583.672 73.1221L583.186 73.5908C585.784 74.1427 588.299 75.0785 590.717 76.3936C594.744 78.5508 598.174 81.8212 601.077 85.9609L601.65 86.8008L601.657 86.8115L601.664 86.8233L602.201 87.6465L602.211 87.6631L602.221 87.6797C604.872 91.8969 606.899 97.056 608.402 103.021L608.695 104.224L608.701 104.247L608.992 105.533L608.994 105.546L608.996 105.559C610.449 112.301 611.141 120.231 611.142 129.282V129.289L611.138 130.928V130.94C611.076 139.21 610.385 146.762 609.035 153.571L608.972 153.891L608.965 153.902C607.535 160.951 605.468 167.146 602.686 172.399L602.687 172.4C599.901 177.7 596.415 182.015 592.127 185.1L592.108 185.117L592.029 185.173C587.626 188.278 582.65 189.845 577.246 189.845C571.611 189.845 565.207 188.235 560.446 184.606L560.436 184.6L560.427 184.592L560.409 184.578C552.881 178.737 548.146 169.633 547.23 160.264L547.153 159.355L546.771 154H572.777L573.411 158.264L573.469 158.621C574.111 162.224 575.94 163 577 163C578.328 163 579.089 162.568 579.883 161.616L580.073 161.38C581.01 160.159 581.844 158.334 582.821 155.738L582.971 155.319C583.612 153.439 584.099 150.837 584.437 148.109C583.773 148.718 582.917 149.434 581.957 149.995L581.929 150.012L581.575 150.207L581.544 150.224L581.513 150.239C578.516 151.783 575.307 152.571 571.951 152.571C566.558 152.571 561.743 150.66 557.706 147.017L557.658 146.973L557.63 146.945C553.796 143.438 550.962 138.791 548.977 133.266L548.954 133.201L548.952 133.191C546.976 127.599 546.024 121.355 546 114.529C545.977 106.835 547.163 99.8353 549.69 93.6338C552.119 87.6403 555.577 82.6896 560.173 79.0108L560.193 78.9951L560.604 78.6729L560.612 78.667L561.075 78.3145C565.883 74.7295 571.45 72.9699 577.581 73.0029C577.538 73.003 577.498 73.0052 577.465 73.0068C577.498 73.0051 577.538 73.0042 577.582 73.0039C577.587 73.0039 577.592 73.0019 577.597 73.002L577.596 73.0039H577.598L577.599 73.002C577.609 73.002 577.619 73.0029 577.629 73.0029C577.636 73.003 577.642 73.0018 577.649 73.002L577.84 73.0059ZM577.583 78.002H577.568C572.304 77.971 567.675 79.5081 563.682 82.6143L563.681 82.6133L563.297 82.9141L563.298 82.915C559.718 85.7804 556.864 89.6509 554.738 94.5274L554.322 95.5156L554.32 95.5205C552.085 101.005 550.978 107.336 551 114.513L551.015 115.704C551.13 121.225 551.912 126.201 553.362 130.633L553.696 131.611C555.37 136.26 557.631 139.976 560.478 142.759L561.057 143.305L561.354 143.567C564.435 146.236 567.968 147.571 571.951 147.571C574.498 147.571 576.923 146.979 579.224 145.794L579.449 145.669C579.844 145.436 580.261 145.122 580.677 144.765L581.098 144.389C581.748 143.788 582.4 143.101 582.977 142.452L583.678 141.64C583.895 141.382 584.095 141.14 584.271 140.924L585.021 140H590.053L589.923 142.623C589.85 144.106 589.719 145.942 589.501 147.883C589.148 151.022 588.575 154.395 587.688 156.979L587.682 156.995L587.676 157.013L587.513 157.466L587.507 157.482L587.5 157.5C586.463 160.257 585.338 162.883 583.722 164.819C582.104 166.757 579.997 168 577 168C572.804 168 569.499 164.738 568.549 159.512L568.465 159H552.14L552.206 159.783C552.972 167.603 556.837 175.176 562.866 180.142L563.475 180.629L563.477 180.63L563.494 180.644C567.181 183.444 572.428 184.845 577.246 184.845C581.624 184.845 585.589 183.593 589.14 181.091L589.147 181.086L589.807 180.597C593.075 178.085 595.894 174.578 598.261 170.074L598.265 170.066L598.735 169.153C601.053 164.527 602.852 159.01 604.13 152.599C605.408 146.156 606.078 138.924 606.138 130.903L606.142 129.283L606.133 127.645C606.053 119.525 605.38 112.513 604.109 106.611L603.828 105.372L603.552 104.237C602.138 98.6262 600.283 93.9931 597.988 90.3408L597.488 89.5713L596.982 88.8311C594.43 85.1908 591.555 82.5149 588.357 80.8018L588.35 80.7969L588.342 80.793C584.928 78.9336 581.346 78.0042 577.596 78.002H577.583ZM577.649 93.2979C581.811 93.2979 584.711 96.8458 586.577 101.197L586.913 102.018C588.426 105.879 589.154 110.188 589.261 113.058L589.275 113.649C589.311 117.297 588.649 121.91 586.855 125.61L586.856 125.611C585.057 129.327 582.127 132.103 577.649 132.103C573.503 132.101 570.667 129.342 568.841 125.718L568.668 125.365C566.968 121.816 566.212 117.55 566.104 114.345V114.328L566.103 114.312L566.091 113.733V113.7C566.066 110.32 566.805 105.219 568.623 100.964L568.797 100.566C570.634 96.4785 573.492 93.2979 577.649 93.2979ZM577.649 98.2979C576.552 98.2979 575.029 99.0726 573.522 102.26L573.22 102.93C571.721 106.437 571.075 110.817 571.09 113.63L571.101 114.176L571.125 114.692C571.278 117.323 571.931 120.604 573.177 123.205L573.447 123.741C574.798 126.301 576.235 127.101 577.649 127.102C579.556 127.102 581.063 126.103 582.356 123.433L582.602 122.896C583.784 120.165 584.304 116.651 584.275 113.699V113.687L584.263 113.208C584.165 110.708 583.456 106.605 581.982 103.169C580.252 99.137 578.562 98.2979 577.649 98.2979ZM577.664 78C577.669 77.9999 577.674 78.0002 577.679 78C577.683 77.9999 577.688 77.9992 577.692 77.999C577.683 77.9994 577.674 77.9997 577.664 78ZM577.85 77.9883C577.848 77.9885 577.843 77.9888 577.838 77.9893C577.828 77.9902 577.811 77.9914 577.789 77.9932C577.772 77.9946 577.75 77.9957 577.724 77.9971C577.742 77.9962 577.759 77.9961 577.773 77.9951C577.797 77.9934 577.817 77.9914 577.829 77.9902C577.842 77.9891 577.852 77.9883 577.852 77.9883H577.85ZM577.385 73.0098C577.365 73.0114 577.349 73.0128 577.34 73.0137C577.336 73.0141 577.332 73.0144 577.33 73.0147C577.332 73.0145 577.343 73.014 577.357 73.0127C577.368 73.0117 577.383 73.0112 577.401 73.0098C577.395 73.0102 577.39 73.0094 577.385 73.0098Z"/>
    <!-- "E" letter part 3 (the other horizontal lines of E) - Fixed White Text -->
    <path class="logo-fixed-white-text" d="M480.866 74.4229V104.837H449.593V116.165H478.42V146.63H449.593V158.009H480.866V188.423H423V74.4229H480.866ZM428 183.423H475.866V163.009H444.593V141.63H473.42V121.165H444.593V99.8369H475.866V79.4229H428V183.423Z"/>
    <path class="logo-fixed-white-text" d="M384.531 74.4229H411.09V146.505C411.09 154.753 409.796 162.182 407.057 168.673L407.058 168.674L407.056 168.68L407.036 168.725C404.301 175.15 400.378 180.363 395.174 184.124L395.159 184.135L395.153 184.138L395.154 184.139C389.883 187.908 383.785 189.743 377.062 189.743C370.314 189.743 364.204 187.929 358.938 184.187L358.908 184.168L358.848 184.124C353.639 180.36 349.726 175.142 347.013 168.71L346.995 168.666C344.282 162.179 343 154.752 343 146.505V74.4229H369.593V144.321C369.593 147.438 370.04 150.039 370.83 152.201L370.838 152.225C371.649 154.372 372.667 155.778 373.752 156.699L373.959 156.869C374.859 157.568 375.832 157.907 377.062 157.907C378.368 157.907 379.375 157.526 380.31 156.725L380.332 156.706C381.429 155.776 382.457 154.352 383.272 152.169L383.419 151.76C384.132 149.691 384.531 147.233 384.531 144.321V74.4229ZM389.531 144.321C389.531 147.909 389.007 151.109 387.956 153.92C386.916 156.703 385.468 158.885 383.618 160.472L383.619 160.473L383.592 160.497L383.564 160.521C381.71 162.111 379.543 162.907 377.062 162.907C374.746 162.907 372.679 162.214 370.871 160.803L370.561 160.549L370.543 160.535L370.526 160.521C368.653 158.934 367.191 156.738 366.141 153.938L364.873 150.56H365.188C364.792 148.631 364.593 146.551 364.593 144.321V79.4229H348V146.505C348 154.015 349.132 160.589 351.396 166.224L351.619 166.767L351.627 166.783L351.628 166.787C354.04 172.495 357.419 176.92 361.767 180.064L361.776 180.071C366.134 183.186 371.23 184.743 377.062 184.743C382.827 184.743 387.89 183.186 392.246 180.071C396.467 177.021 399.788 172.764 402.205 167.3L402.436 166.767C404.872 161.012 406.09 154.257 406.09 146.505V79.4229H389.531V144.321Z"/>
    <path class="logo-fixed-white-text" d="M287.593 74.4229V111.5H304.643V74.4229H331.202V188.423H304.643V136H287.593V188.423H261V74.4229H287.593ZM266 183.423H282.593V131H309.643V183.423H326.202V79.4229H309.643V116.5H282.593V79.4229H266V183.423Z"/>
    </g>
    <defs>
    <clipPath id="clip0_1428_1659">
    <rect width="1047" height="264" rx="2"/>
    </clipPath>
    </defs>
</svg>